<?xml version="1.0" encoding="UTF-8"?>
<!DOCTYPE svg PUBLIC "-//W3C//DTD SVG 1.1//EN" "http://www.w3.org/Graphics/SVG/1.1/DTD/svg11.dtd">
<svg xmlns="http://www.w3.org/2000/svg" version="1.1" width="20px" height="20px" style="shape-rendering:geometricPrecision; text-rendering:geometricPrecision; image-rendering:optimizeQuality; fill-rule:evenodd; clip-rule:evenodd" xmlns:xlink="http://www.w3.org/1999/xlink">
<g><path style="opacity:0.997" fill="#994d1c" d="M 188.5,-0.5 C 233.167,-0.5 277.833,-0.5 322.5,-0.5C 341.895,3.04262 356.062,13.7093 365,31.5C 366.796,35.6827 368.129,40.016 369,44.5C 369.5,67.1642 369.667,89.8309 369.5,112.5C 403.202,112.042 436.869,112.542 470.5,114C 486.575,118.743 498.409,128.576 506,143.5C 507.965,148.571 509.798,153.571 511.5,158.5C 511.5,192.5 511.5,226.5 511.5,260.5C 506.707,290.126 489.374,307.292 459.5,312C 391,312.167 322.5,312.333 254,312.5C 183.798,312.659 113.631,312.159 43.5,311C 17.9399,303.609 3.27318,286.776 -0.5,260.5C -0.5,226.5 -0.5,192.5 -0.5,158.5C 3.77529,141.795 13.1086,128.628 27.5,119C 31.7225,117.056 36.0558,115.389 40.5,114C 74.1312,112.542 107.798,112.042 141.5,112.5C 141.333,89.8309 141.5,67.1642 142,44.5C 146.541,24.9529 158.041,11.1196 176.5,3C 180.623,1.80766 184.623,0.640996 188.5,-0.5 Z M 193.5,57.5 C 235.894,57.0164 278.227,57.5164 320.5,59C 331.094,62.9215 337.26,70.4215 339,81.5C 339.5,91.828 339.666,102.161 339.5,112.5C 283.5,112.5 227.5,112.5 171.5,112.5C 171.334,102.161 171.5,91.828 172,81.5C 174.431,69.2365 181.598,61.2365 193.5,57.5 Z"/></g>
<g><path style="opacity:1" fill="#cbd3d9" d="M 221.5,226.5 C 243.836,226.333 266.169,226.5 288.5,227C 307.289,232.778 314.789,245.278 311,264.5C 306.881,274.956 299.381,281.456 288.5,284C 264.783,284.959 241.117,284.626 217.5,283C 198.494,272.462 193.994,257.629 204,238.5C 208.505,232.348 214.338,228.348 221.5,226.5 Z"/></g>
<g><path style="opacity:1" fill="#662113" d="M -0.5,260.5 C 3.27318,286.776 17.9399,303.609 43.5,311C 113.631,312.159 183.798,312.659 254,312.5C 322.5,312.333 391,312.167 459.5,312C 489.374,307.292 506.707,290.126 511.5,260.5C 511.5,270.167 511.5,279.833 511.5,289.5C 507.585,314.27 493.585,330.77 469.5,339C 397.697,340.157 325.863,340.657 254,340.5C 184.167,340.333 114.333,340.167 44.5,340C 32.9742,337.463 23.1409,331.963 15,323.5C 6.78763,313.418 1.62097,302.085 -0.5,289.5C -0.5,279.833 -0.5,270.167 -0.5,260.5 Z"/></g>
<g><path style="opacity:0.999" fill="#994d1b" d="M -0.5,289.5 C 1.62097,302.085 6.78763,313.418 15,323.5C 23.1409,331.963 32.9742,337.463 44.5,340C 114.333,340.167 184.167,340.333 254,340.5C 325.863,340.657 397.697,340.157 469.5,339C 493.585,330.77 507.585,314.27 511.5,289.5C 511.5,347.833 511.5,406.167 511.5,464.5C 508.04,481.876 498.707,495.376 483.5,505C 477.41,508.262 471.076,510.429 464.5,511.5C 325.167,511.5 185.833,511.5 46.5,511.5C 29.1239,508.04 15.6239,498.707 6,483.5C 2.73801,477.41 0.571339,471.076 -0.5,464.5C -0.5,406.167 -0.5,347.833 -0.5,289.5 Z"/></g>
</svg>
